<svg width="80" height="80" viewBox="0 0 80 80" fill="none" xmlns="http://www.w3.org/2000/svg">
<path opacity="0.16" d="M1.25 1.25L78.75 78.75M78.75 1.25L1.25 78.75M27.499 0V80M39.9985 0V80M52.4998 0V80M80 27.5002L0 27.5002M80 39.9996L0 39.9996M80 52.5008L0 52.5008M65 40C65 53.8071 53.8071 65 40 65C26.1929 65 15 53.8071 15 40C15 26.1929 26.1929 15 40 15C53.8071 15 65 26.1929 65 40ZM52.5 40C52.5 46.9036 46.9036 52.5 40 52.5C33.0964 52.5 27.5 46.9036 27.5 40C27.5 33.0964 33.0964 27.5 40 27.5C46.9036 27.5 52.5 33.0964 52.5 40Z" stroke="url(#paint0_radial_146_10990)" stroke-width="0.5"/>
<defs>
<radialGradient id="paint0_radial_146_10990" cx="0" cy="0" r="1" gradientUnits="userSpaceOnUse" gradientTransform="translate(40 40) rotate(90) scale(40)">
<stop stop-color="white"/>
<stop offset="0.5" stop-color="white" stop-opacity="0.25"/>
<stop offset="1" stop-color="white" stop-opacity="0"/>
</radialGradient>
</defs>
</svg>
